<mxfile host="app.diagrams.net" agent="Mozilla/5.0 (Windows NT 10.0; Win64; x64) AppleWebKit/537.36 (KHTML, like Gecko) Chrome/109.0.0.0 Safari/537.36" version="25.0.3">
  <diagram name="Page-1" id="m-5G5hvYIql3QkyZZicx">
    <mxGraphModel dx="1120" dy="490" grid="1" gridSize="10" guides="1" tooltips="1" connect="1" arrows="1" fold="1" page="1" pageScale="1" pageWidth="850" pageHeight="1100" math="0" shadow="0">
      <root>
        <mxCell id="0" />
        <mxCell id="1" parent="0" />
        <mxCell id="lRbNaWWh590nmJVTjZSF-2" value="API" style="shape=singleArrow;whiteSpace=wrap;html=1;" parent="1" vertex="1">
          <mxGeometry x="80" y="140" width="100" height="60" as="geometry" />
        </mxCell>
        <mxCell id="lRbNaWWh590nmJVTjZSF-3" value="API" style="shape=singleArrow;whiteSpace=wrap;html=1;" parent="1" vertex="1">
          <mxGeometry x="80" y="240" width="100" height="60" as="geometry" />
        </mxCell>
        <mxCell id="lRbNaWWh590nmJVTjZSF-4" value="API" style="shape=singleArrow;whiteSpace=wrap;html=1;" parent="1" vertex="1">
          <mxGeometry x="80" y="340" width="100" height="60" as="geometry" />
        </mxCell>
        <mxCell id="lRbNaWWh590nmJVTjZSF-5" value="&lt;b&gt;Active &lt;/b&gt;stock&lt;div&gt;tickers/symbols&lt;/div&gt;" style="text;html=1;align=center;verticalAlign=middle;resizable=0;points=[];autosize=1;strokeColor=none;fillColor=none;" parent="1" vertex="1">
          <mxGeometry x="65" y="113" width="110" height="40" as="geometry" />
        </mxCell>
        <mxCell id="lRbNaWWh590nmJVTjZSF-6" value="Stock details&lt;br&gt;&lt;div&gt;(&lt;b&gt;marketcap&lt;/b&gt;)&lt;/div&gt;" style="text;html=1;align=center;verticalAlign=middle;resizable=0;points=[];autosize=1;strokeColor=none;fillColor=none;" parent="1" vertex="1">
          <mxGeometry x="65" y="213" width="90" height="40" as="geometry" />
        </mxCell>
        <mxCell id="lRbNaWWh590nmJVTjZSF-7" value="Daily stock&lt;br&gt;&amp;nbsp;data (&lt;b&gt;OHLC&lt;/b&gt;)" style="text;html=1;align=center;verticalAlign=middle;resizable=0;points=[];autosize=1;strokeColor=none;fillColor=none;" parent="1" vertex="1">
          <mxGeometry x="70" y="313" width="100" height="40" as="geometry" />
        </mxCell>
        <mxCell id="4kjVXxvlFrOHnIfdnLef-5" style="edgeStyle=orthogonalEdgeStyle;rounded=0;orthogonalLoop=1;jettySize=auto;html=1;exitX=1;exitY=0.5;exitDx=0;exitDy=0;exitPerimeter=0;" edge="1" parent="1" source="lRbNaWWh590nmJVTjZSF-8" target="lRbNaWWh590nmJVTjZSF-9">
          <mxGeometry relative="1" as="geometry" />
        </mxCell>
        <mxCell id="4kjVXxvlFrOHnIfdnLef-6" style="edgeStyle=orthogonalEdgeStyle;rounded=0;orthogonalLoop=1;jettySize=auto;html=1;exitX=1;exitY=0.5;exitDx=0;exitDy=0;exitPerimeter=0;" edge="1" parent="1" source="lRbNaWWh590nmJVTjZSF-8" target="lRbNaWWh590nmJVTjZSF-10">
          <mxGeometry relative="1" as="geometry" />
        </mxCell>
        <mxCell id="4kjVXxvlFrOHnIfdnLef-7" style="edgeStyle=orthogonalEdgeStyle;rounded=0;orthogonalLoop=1;jettySize=auto;html=1;exitX=1;exitY=0.5;exitDx=0;exitDy=0;exitPerimeter=0;" edge="1" parent="1" source="lRbNaWWh590nmJVTjZSF-8" target="4kjVXxvlFrOHnIfdnLef-1">
          <mxGeometry relative="1" as="geometry" />
        </mxCell>
        <mxCell id="lRbNaWWh590nmJVTjZSF-8" value="Sqlite&lt;div&gt;Tables:&lt;br&gt;ticker_details&lt;br&gt;stock_prices&lt;br&gt;&lt;br&gt;&lt;/div&gt;" style="shape=cylinder3;whiteSpace=wrap;html=1;boundedLbl=1;backgroundOutline=1;size=15;" parent="1" vertex="1">
          <mxGeometry x="190" y="140" width="130" height="270" as="geometry" />
        </mxCell>
        <mxCell id="4kjVXxvlFrOHnIfdnLef-8" style="edgeStyle=orthogonalEdgeStyle;rounded=0;orthogonalLoop=1;jettySize=auto;html=1;exitX=1;exitY=0.5;exitDx=0;exitDy=0;" edge="1" parent="1" source="lRbNaWWh590nmJVTjZSF-9" target="4kjVXxvlFrOHnIfdnLef-4">
          <mxGeometry relative="1" as="geometry" />
        </mxCell>
        <mxCell id="lRbNaWWh590nmJVTjZSF-9" value="Create equally weighted index for top n stocks. Store in&lt;div&gt;&lt;b&gt;index_composition&lt;/b&gt;&lt;/div&gt;" style="shape=process;whiteSpace=wrap;html=1;backgroundOutline=1;" parent="1" vertex="1">
          <mxGeometry x="381" y="160" width="230" height="66.5" as="geometry" />
        </mxCell>
        <mxCell id="lRbNaWWh590nmJVTjZSF-10" value="Create index performance b/w start to end date. Store in &lt;b&gt;index_performance.&lt;/b&gt;" style="shape=process;whiteSpace=wrap;html=1;backgroundOutline=1;" parent="1" vertex="1">
          <mxGeometry x="380" y="245" width="230" height="60" as="geometry" />
        </mxCell>
        <mxCell id="4kjVXxvlFrOHnIfdnLef-1" value="Detect index composition changes. Store in &lt;b&gt;index_composition_changes.&lt;/b&gt;" style="shape=process;whiteSpace=wrap;html=1;backgroundOutline=1;" vertex="1" parent="1">
          <mxGeometry x="380" y="330" width="230" height="60" as="geometry" />
        </mxCell>
        <mxCell id="4kjVXxvlFrOHnIfdnLef-17" style="edgeStyle=orthogonalEdgeStyle;rounded=0;orthogonalLoop=1;jettySize=auto;html=1;exitX=1;exitY=0.5;exitDx=0;exitDy=0;exitPerimeter=0;" edge="1" parent="1" source="4kjVXxvlFrOHnIfdnLef-4" target="4kjVXxvlFrOHnIfdnLef-16">
          <mxGeometry relative="1" as="geometry" />
        </mxCell>
        <mxCell id="4kjVXxvlFrOHnIfdnLef-19" style="edgeStyle=orthogonalEdgeStyle;rounded=0;orthogonalLoop=1;jettySize=auto;html=1;exitX=1;exitY=0.5;exitDx=0;exitDy=0;exitPerimeter=0;" edge="1" parent="1" source="4kjVXxvlFrOHnIfdnLef-4" target="4kjVXxvlFrOHnIfdnLef-18">
          <mxGeometry relative="1" as="geometry" />
        </mxCell>
        <mxCell id="4kjVXxvlFrOHnIfdnLef-4" value="Sqlite&lt;div&gt;Tables:&lt;br&gt;index_composition&lt;br&gt;index_performance&lt;br&gt;index_composition_changes&lt;/div&gt;&lt;div&gt;&lt;br&gt;&lt;br&gt;&lt;/div&gt;" style="shape=cylinder3;whiteSpace=wrap;html=1;boundedLbl=1;backgroundOutline=1;size=15;" vertex="1" parent="1">
          <mxGeometry x="670" y="140" width="160" height="270" as="geometry" />
        </mxCell>
        <mxCell id="4kjVXxvlFrOHnIfdnLef-9" style="edgeStyle=orthogonalEdgeStyle;rounded=0;orthogonalLoop=1;jettySize=auto;html=1;exitX=1;exitY=0.5;exitDx=0;exitDy=0;entryX=0;entryY=0.5;entryDx=0;entryDy=0;entryPerimeter=0;" edge="1" parent="1" source="lRbNaWWh590nmJVTjZSF-10" target="4kjVXxvlFrOHnIfdnLef-4">
          <mxGeometry relative="1" as="geometry" />
        </mxCell>
        <mxCell id="4kjVXxvlFrOHnIfdnLef-11" style="edgeStyle=orthogonalEdgeStyle;rounded=0;orthogonalLoop=1;jettySize=auto;html=1;exitX=1;exitY=0.5;exitDx=0;exitDy=0;entryX=0;entryY=0.5;entryDx=0;entryDy=0;entryPerimeter=0;" edge="1" parent="1" source="4kjVXxvlFrOHnIfdnLef-1" target="4kjVXxvlFrOHnIfdnLef-4">
          <mxGeometry relative="1" as="geometry" />
        </mxCell>
        <mxCell id="4kjVXxvlFrOHnIfdnLef-12" value="&lt;b&gt;CURRENT ARCHITECHTURE&lt;/b&gt;" style="text;html=1;align=center;verticalAlign=middle;resizable=0;points=[];autosize=1;strokeColor=none;fillColor=none;" vertex="1" parent="1">
          <mxGeometry x="330" y="50" width="190" height="30" as="geometry" />
        </mxCell>
        <mxCell id="4kjVXxvlFrOHnIfdnLef-16" value="Export index_performance.csv&lt;div&gt;index_composition.csv&lt;/div&gt;" style="shape=document;whiteSpace=wrap;html=1;boundedLbl=1;" vertex="1" parent="1">
          <mxGeometry x="950" y="370" width="150" height="80" as="geometry" />
        </mxCell>
        <mxCell id="4kjVXxvlFrOHnIfdnLef-18" value="" style="sketch=0;pointerEvents=1;shadow=0;dashed=0;html=1;strokeColor=none;fillColor=#434445;aspect=fixed;labelPosition=center;verticalLabelPosition=bottom;verticalAlign=top;align=center;outlineConnect=0;shape=mxgraph.vvd.nsx_dashboard;" vertex="1" parent="1">
          <mxGeometry x="950" y="113" width="90" height="83.7" as="geometry" />
        </mxCell>
        <mxCell id="4kjVXxvlFrOHnIfdnLef-20" value="index performance over time&lt;div&gt;performance insights &amp;nbsp;&lt;/div&gt;&lt;div&gt;index composition (123 date)&amp;nbsp;&lt;/div&gt;&lt;div&gt;index composition insights&lt;/div&gt;&lt;div&gt;index composition change&lt;/div&gt;&lt;div&gt;number of composition change&amp;nbsp;&lt;/div&gt;" style="text;html=1;align=center;verticalAlign=middle;resizable=0;points=[];autosize=1;strokeColor=none;fillColor=none;" vertex="1" parent="1">
          <mxGeometry x="920" y="220" width="190" height="100" as="geometry" />
        </mxCell>
      </root>
    </mxGraphModel>
  </diagram>
</mxfile>
